<svg width="175" height="54" viewBox="0 0 175 54" fill="none" xmlns="http://www.w3.org/2000/svg">
<path d="M9 40.15C7.62 40.15 6.37 39.81 5.25 39.13C4.15 38.45 3.28 37.47 2.64 36.19C2 34.89 1.68 33.36 1.68 31.6C1.68 28.56 2.33 25.75 3.63 23.17C4.93 20.57 6.85 18.49 9.39 16.93C11.93 15.35 14.98 14.56 18.54 14.56C19.46 14.56 20.44 14.63 21.48 14.77C22.54 14.91 23.5 15.12 24.36 15.4C24.92 15.56 25.2 15.96 25.2 16.6C25.2 17.12 25 17.61 24.6 18.07C24.22 18.53 23.77 18.76 23.25 18.76C23.09 18.76 22.97 18.75 22.89 18.73C21.85 18.49 20.96 18.32 20.22 18.22C19.48 18.1 18.7 18.04 17.88 18.04C15.34 18.04 13.18 18.66 11.4 19.9C9.62 21.12 8.29 22.74 7.41 24.76C6.53 26.78 6.09 28.96 6.09 31.3C6.09 33 6.42 34.32 7.08 35.26C7.76 36.18 8.64 36.64 9.72 36.64C10.94 36.64 12.01 36.14 12.93 35.14C13.85 34.14 14.69 32.52 15.45 30.28C16.21 28.04 16.96 25 17.7 21.16C17.82 20.6 18.06 20.22 18.42 20.02C18.78 19.82 19.26 19.72 19.86 19.72C21.28 19.72 21.99 20.18 21.99 21.1C21.99 21.26 21.96 21.46 21.9 21.7C21.38 23.64 20.9 25.79 20.46 28.15C20.04 30.49 19.83 32.27 19.83 33.49C19.83 34.57 19.99 35.36 20.31 35.86C20.63 36.34 21.12 36.58 21.78 36.58C22.42 36.58 23.03 36.37 23.61 35.95C24.19 35.51 24.92 34.77 25.8 33.73C26.04 33.45 26.31 33.31 26.61 33.31C26.87 33.31 27.07 33.43 27.21 33.67C27.37 33.91 27.45 34.24 27.45 34.66C27.45 35.44 27.26 36.06 26.88 36.52C25.9 37.7 24.94 38.6 24 39.22C23.06 39.84 21.91 40.15 20.55 40.15C19.15 40.15 18.02 39.75 17.16 38.95C16.3 38.13 15.76 36.98 15.54 35.5C14.06 38.6 11.88 40.15 9 40.15ZM37.144 30.13C37.584 30.13 37.954 30.29 38.254 30.61C38.574 30.91 38.734 31.29 38.734 31.75C38.734 32.01 38.674 32.29 38.554 32.59C38.234 33.33 37.784 33.95 37.204 34.45C36.624 34.95 35.984 35.2 35.284 35.2C34.724 35.2 34.244 35 33.844 34.6C33.464 34.2 33.274 33.66 33.274 32.98C33.274 32.6 33.294 32.19 33.334 31.75C33.374 31.43 33.394 31.21 33.394 31.09C33.394 30.93 33.354 30.81 33.274 30.73C33.214 30.65 33.134 30.61 33.034 30.61C32.754 30.61 32.374 30.95 31.894 31.63C31.414 32.29 30.934 33.17 30.454 34.27C29.974 35.37 29.584 36.53 29.284 37.75C29.064 38.71 28.814 39.35 28.534 39.67C28.254 39.99 27.794 40.15 27.154 40.15C26.394 40.15 25.854 39.75 25.534 38.95C25.234 38.15 25.084 36.87 25.084 35.11C25.084 32.51 25.454 30.04 26.194 27.7C26.374 27.12 26.664 26.7 27.064 26.44C27.484 26.16 28.064 26.02 28.804 26.02C29.204 26.02 29.484 26.07 29.644 26.17C29.804 26.27 29.884 26.46 29.884 26.74C29.884 27.06 29.734 27.78 29.434 28.9C29.234 29.7 29.074 30.4 28.954 31C28.834 31.6 28.734 32.34 28.654 33.22C29.314 31.5 30.054 30.1 30.874 29.02C31.694 27.94 32.494 27.17 33.274 26.71C34.054 26.25 34.764 26.02 35.404 26.02C35.984 26.02 36.424 26.19 36.724 26.53C37.044 26.85 37.204 27.33 37.204 27.97C37.204 28.35 37.094 29.07 36.874 30.13H37.144ZM53.2575 33.31C53.5175 33.31 53.7175 33.43 53.8575 33.67C54.0175 33.91 54.0975 34.24 54.0975 34.66C54.0975 35.46 53.9075 36.08 53.5275 36.52C52.6675 37.58 51.7275 38.45 50.7075 39.13C49.6875 39.81 48.5175 40.15 47.1975 40.15C43.1175 40.15 41.0775 37.28 41.0775 31.54C41.0775 30.66 41.1075 29.77 41.1675 28.87H39.9975C39.3975 28.87 38.9875 28.76 38.7675 28.54C38.5675 28.32 38.4675 27.97 38.4675 27.49C38.4675 26.37 38.9175 25.81 39.8175 25.81H41.5275C41.8675 23.61 42.3875 21.6 43.0875 19.78C43.7875 17.96 44.6275 16.51 45.6075 15.43C46.6075 14.35 47.6775 13.81 48.8175 13.81C49.6575 13.81 50.3175 14.18 50.7975 14.92C51.2775 15.66 51.5175 16.59 51.5175 17.71C51.5175 20.81 50.2175 23.51 47.6175 25.81H50.9775C51.2975 25.81 51.5275 25.88 51.6675 26.02C51.8075 26.16 51.8775 26.42 51.8775 26.8C51.8775 28.18 50.7475 28.87 48.4875 28.87H44.8275C44.7875 29.87 44.7675 30.65 44.7675 31.21C44.7675 33.29 45.0075 34.75 45.4875 35.59C45.9875 36.43 46.7675 36.85 47.8275 36.85C48.6875 36.85 49.4475 36.59 50.1075 36.07C50.7675 35.55 51.5475 34.77 52.4475 33.73C52.6875 33.45 52.9575 33.31 53.2575 33.31ZM48.0075 16.69C47.7075 16.69 47.3675 17.07 46.9875 17.83C46.6275 18.57 46.2775 19.61 45.9375 20.95C45.6175 22.27 45.3475 23.74 45.1275 25.36C46.3075 24.34 47.1875 23.2 47.7675 21.94C48.3675 20.66 48.6675 19.5 48.6675 18.46C48.6675 17.28 48.4475 16.69 48.0075 16.69ZM55.5848 24.04C54.7448 24.04 54.1148 23.85 53.6948 23.47C53.2748 23.07 53.0648 22.52 53.0648 21.82C53.0648 21.12 53.3348 20.54 53.8748 20.08C54.4348 19.6 55.1248 19.36 55.9448 19.36C56.6848 19.36 57.2848 19.54 57.7448 19.9C58.2048 20.26 58.4348 20.77 58.4348 21.43C58.4348 22.23 58.1748 22.87 57.6548 23.35C57.1348 23.81 56.4448 24.04 55.5848 24.04ZM55.3448 40.15C54.0448 40.15 53.0948 39.69 52.4948 38.77C51.9148 37.85 51.6248 36.63 51.6248 35.11C51.6248 34.21 51.7348 33.06 51.9548 31.66C52.1948 30.24 52.4948 28.92 52.8548 27.7C53.0348 27.06 53.2748 26.62 53.5748 26.38C53.8748 26.14 54.3548 26.02 55.0148 26.02C56.0348 26.02 56.5448 26.36 56.5448 27.04C56.5448 27.54 56.3548 28.7 55.9748 30.52C55.4948 32.72 55.2548 34.21 55.2548 34.99C55.2548 35.59 55.3348 36.05 55.4948 36.37C55.6548 36.69 55.9248 36.85 56.3048 36.85C56.6648 36.85 57.1148 36.6 57.6548 36.1C58.1948 35.6 58.9148 34.81 59.8148 33.73C60.0548 33.45 60.3248 33.31 60.6248 33.31C60.8848 33.31 61.0848 33.43 61.2248 33.67C61.3848 33.91 61.4648 34.24 61.4648 34.66C61.4648 35.46 61.2748 36.08 60.8948 36.52C58.9148 38.94 57.0648 40.15 55.3448 40.15ZM64.6177 40.81C63.5777 40.81 62.7777 40.57 62.2177 40.09C61.6777 39.61 61.4077 39.07 61.4077 38.47C61.4077 37.95 61.5977 37.5 61.9777 37.12C62.3577 36.74 62.9177 36.55 63.6577 36.55C63.9177 36.55 64.2177 36.58 64.5577 36.64C64.9177 36.68 65.1877 36.71 65.3677 36.73C65.3477 36.21 65.2277 35.72 65.0077 35.26C64.8077 34.8 64.5477 34.36 64.2277 33.94C63.9077 33.5 63.6077 33.12 63.3277 32.8C62.7077 33.98 62.0877 34.96 61.4677 35.74C60.8677 36.52 60.2077 37.26 59.4877 37.96C59.1277 38.32 58.7477 38.5 58.3477 38.5C58.0277 38.5 57.7677 38.39 57.5677 38.17C57.3677 37.93 57.2677 37.64 57.2677 37.3C57.2677 36.9 57.4077 36.53 57.6877 36.19L58.0777 35.71C59.1777 34.35 60.0077 33.23 60.5677 32.35C60.9077 31.77 61.3077 31 61.7677 30.04C62.2277 29.06 62.6777 28.05 63.1177 27.01C63.4977 26.13 64.2877 25.69 65.4877 25.69C66.0477 25.69 66.4377 25.74 66.6577 25.84C66.8777 25.94 66.9877 26.1 66.9877 26.32C66.9877 26.44 66.9477 26.63 66.8677 26.89C66.7877 27.15 66.6777 27.41 66.5377 27.67C66.1777 28.39 65.9977 29 65.9977 29.5C65.9977 29.8 66.0977 30.13 66.2977 30.49C66.5177 30.85 66.8477 31.3 67.2877 31.84C67.9277 32.68 68.4077 33.4 68.7277 34C69.0677 34.58 69.2377 35.22 69.2377 35.92C69.2377 36.12 69.2177 36.4 69.1777 36.76C70.1577 36.38 71.3077 35.37 72.6277 33.73C72.8677 33.45 73.1377 33.31 73.4377 33.31C73.6977 33.31 73.8977 33.43 74.0377 33.67C74.1977 33.91 74.2777 34.24 74.2777 34.66C74.2777 35.42 74.0877 36.04 73.7077 36.52C72.7077 37.76 71.7477 38.61 70.8277 39.07C69.9277 39.51 68.8077 39.75 67.4677 39.79C66.6677 40.47 65.7177 40.81 64.6177 40.81ZM76.7904 28.87C76.7504 29.87 76.7304 30.65 76.7304 31.21C76.7304 32.65 76.8004 33.78 76.9404 34.6C77.1004 35.4 77.3504 35.98 77.6904 36.34C78.0504 36.68 78.5404 36.85 79.1604 36.85C79.4804 36.85 79.8604 36.75 80.3004 36.55C80.7404 36.35 81.1404 36.09 81.5004 35.77C81.7204 35.57 81.9404 35.47 82.1604 35.47C82.4004 35.47 82.5904 35.61 82.7304 35.89C82.8904 36.15 82.9704 36.47 82.9704 36.85C82.9704 37.23 82.8904 37.6 82.7304 37.96C82.5904 38.32 82.3704 38.62 82.0704 38.86C81.0304 39.72 79.8504 40.15 78.5304 40.15C76.6304 40.15 75.2404 39.36 74.3604 37.78C73.4804 36.18 73.0404 34.1 73.0404 31.54C73.0404 30.66 73.0704 29.77 73.1304 28.87H71.9604C71.3604 28.87 70.9504 28.76 70.7304 28.54C70.5304 28.32 70.4304 27.97 70.4304 27.49C70.4304 26.37 70.8804 25.81 71.7804 25.81H73.4904C73.8304 23.61 74.3504 21.6 75.0504 19.78C75.7504 17.96 76.5904 16.51 77.5704 15.43C78.5704 14.35 79.6404 13.81 80.7804 13.81C81.6204 13.81 82.2804 14.18 82.7604 14.92C83.2404 15.66 83.4804 16.59 83.4804 17.71C83.4804 20.81 82.1804 23.51 79.5804 25.81H82.9404C83.2604 25.81 83.4904 25.88 83.6304 26.02C83.7704 26.16 83.8404 26.42 83.8404 26.8C83.8404 28.18 82.7104 28.87 80.4504 28.87H76.7904ZM79.9704 16.69C79.6704 16.69 79.3304 17.07 78.9504 17.83C78.5904 18.57 78.2404 19.61 77.9004 20.95C77.5804 22.27 77.3104 23.74 77.0904 25.36C78.2704 24.34 79.1504 23.2 79.7304 21.94C80.3304 20.66 80.6304 19.5 80.6304 18.46C80.6304 17.28 80.4104 16.69 79.9704 16.69ZM105.552 14.74C106.072 14.74 106.512 14.87 106.872 15.13C107.232 15.37 107.412 15.67 107.412 16.03C107.412 16.67 107.212 17.19 106.812 17.59C106.412 17.97 105.842 18.16 105.102 18.16C103.942 18.16 103.062 18.17 102.462 18.19C102.422 18.43 102.242 19.51 101.922 21.43C101.562 23.57 101.342 24.88 101.262 25.36L100.632 29.29C100.192 32.23 99.8424 34.69 99.5824 36.67C100.002 36.65 100.572 36.64 101.292 36.64C102.352 36.64 103.072 36.78 103.452 37.06C103.832 37.34 104.022 37.76 104.022 38.32C104.022 38.84 103.812 39.28 103.392 39.64C102.992 40 102.422 40.18 101.682 40.18C101.182 40.18 100.392 40.16 99.3124 40.12C98.3124 40.08 97.6524 40.06 97.3324 40.06C96.0724 40.06 94.6924 40.17 93.1924 40.39C92.5324 40.49 92.0624 40.54 91.7824 40.54C91.3424 40.54 90.9724 40.42 90.6724 40.18C90.3724 39.94 90.2224 39.59 90.2224 39.13C90.2224 38.41 90.5424 37.85 91.1824 37.45C91.8224 37.05 92.7224 36.84 93.8824 36.82L95.2924 36.79L95.3824 36.13C95.8624 32.93 96.2124 30.67 96.4324 29.35L97.0924 25.42C97.4924 23.1 97.8524 20.71 98.1724 18.25L95.6524 18.28C94.9324 18.28 94.4324 18.17 94.1524 17.95C93.8924 17.71 93.7624 17.38 93.7624 16.96C93.7624 15.6 94.7424 14.87 96.7024 14.77C97.6224 14.73 98.7424 14.71 100.062 14.71L105.552 14.74ZM109.156 40.15C108.396 40.15 107.856 39.75 107.536 38.95C107.236 38.15 107.086 36.87 107.086 35.11C107.086 32.51 107.456 30.04 108.196 27.7C108.376 27.12 108.666 26.7 109.066 26.44C109.486 26.16 110.066 26.02 110.806 26.02C111.206 26.02 111.486 26.07 111.646 26.17C111.806 26.27 111.886 26.46 111.886 26.74C111.886 27.06 111.736 27.78 111.436 28.9C111.236 29.7 111.076 30.4 110.956 31C110.836 31.6 110.736 32.34 110.656 33.22C111.316 31.5 112.056 30.1 112.876 29.02C113.696 27.94 114.496 27.17 115.276 26.71C116.076 26.25 116.806 26.02 117.466 26.02C118.766 26.02 119.416 26.67 119.416 27.97C119.416 28.75 119.196 30.16 118.756 32.2C118.376 33.94 118.186 35.09 118.186 35.65C118.186 36.45 118.476 36.85 119.056 36.85C119.456 36.85 119.926 36.61 120.466 36.13C121.026 35.63 121.766 34.83 122.686 33.73C122.926 33.45 123.196 33.31 123.496 33.31C123.756 33.31 123.956 33.43 124.096 33.67C124.256 33.91 124.336 34.24 124.336 34.66C124.336 35.46 124.146 36.08 123.766 36.52C122.906 37.58 121.976 38.45 120.976 39.13C119.996 39.81 118.876 40.15 117.616 40.15C116.596 40.15 115.826 39.86 115.306 39.28C114.786 38.68 114.526 37.82 114.526 36.7C114.526 36.14 114.666 35.14 114.946 33.7C115.206 32.44 115.336 31.57 115.336 31.09C115.336 30.77 115.226 30.61 115.006 30.61C114.746 30.61 114.376 30.95 113.896 31.63C113.436 32.29 112.956 33.17 112.456 34.27C111.976 35.37 111.586 36.53 111.286 37.75C111.066 38.69 110.806 39.33 110.506 39.67C110.226 39.99 109.776 40.15 109.156 40.15ZM127.429 40.15C126.689 40.15 126.159 39.99 125.839 39.67C125.519 39.33 125.359 38.7 125.359 37.78C125.359 37.16 125.419 36.37 125.539 35.41C125.679 34.43 125.899 33.09 126.199 31.39C126.719 28.25 127.129 25.53 127.429 23.23C127.609 21.79 127.699 20.59 127.699 19.63C127.699 18.73 127.369 18.28 126.709 18.28C126.189 18.28 125.559 18.55 124.819 19.09C124.099 19.61 123.299 20.45 122.419 21.61C122.139 21.99 121.829 22.18 121.489 22.18C121.209 22.18 120.959 22.05 120.739 21.79C120.539 21.51 120.439 21.2 120.439 20.86C120.439 20.54 120.499 20.22 120.619 19.9C120.759 19.56 120.979 19.18 121.279 18.76C122.239 17.42 123.309 16.39 124.489 15.67C125.669 14.93 126.849 14.56 128.029 14.56C129.129 14.56 129.969 14.91 130.549 15.61C131.149 16.31 131.449 17.33 131.449 18.67C131.449 19.21 131.399 19.85 131.299 20.59C131.199 21.31 131.109 21.9 131.029 22.36C130.949 22.82 130.889 23.14 130.849 23.32C131.989 20.06 133.269 17.79 134.689 16.51C136.109 15.21 137.669 14.56 139.369 14.56C140.669 14.56 141.689 15.02 142.429 15.94C143.189 16.86 143.569 18.16 143.569 19.84C143.569 20.5 143.479 21.32 143.299 22.3C144.299 19.54 145.469 17.56 146.809 16.36C148.149 15.16 149.689 14.56 151.429 14.56C152.829 14.56 153.899 15.01 154.639 15.91C155.399 16.81 155.779 18.07 155.779 19.69C155.779 20.57 155.649 21.64 155.389 22.9L153.559 31.48C153.359 32.48 153.259 33.34 153.259 34.06C153.259 34.9 153.449 35.53 153.829 35.95C154.229 36.37 154.779 36.58 155.479 36.58C156.139 36.58 156.779 36.36 157.399 35.92C158.039 35.48 158.789 34.75 159.649 33.73C159.889 33.45 160.159 33.31 160.459 33.31C160.719 33.31 160.919 33.43 161.059 33.67C161.219 33.91 161.299 34.24 161.299 34.66C161.299 35.44 161.109 36.06 160.729 36.52C159.689 37.78 158.659 38.7 157.639 39.28C156.619 39.86 155.549 40.15 154.429 40.15C152.729 40.15 151.399 39.65 150.439 38.65C149.479 37.63 148.999 36.27 148.999 34.57C148.999 33.39 149.239 31.68 149.719 29.44L150.919 23.95C150.959 23.77 151.029 23.45 151.129 22.99C151.229 22.53 151.309 22.1 151.369 21.7C151.429 21.28 151.459 20.87 151.459 20.47C151.459 19.77 151.319 19.25 151.039 18.91C150.779 18.55 150.399 18.37 149.899 18.37C148.959 18.37 147.969 18.98 146.929 20.2C145.909 21.4 144.929 23.4 143.989 26.2C143.069 29 142.319 32.64 141.739 37.12C141.599 38.32 141.349 39.13 140.989 39.55C140.649 39.95 140.089 40.15 139.309 40.15C138.629 40.15 138.129 39.99 137.809 39.67C137.509 39.35 137.359 38.75 137.359 37.87C137.359 37.05 137.469 35.98 137.689 34.66C137.909 33.32 138.189 31.75 138.529 29.95C139.449 25.11 139.909 21.99 139.909 20.59C139.909 19.83 139.759 19.27 139.459 18.91C139.179 18.55 138.749 18.37 138.169 18.37C137.189 18.37 136.179 18.93 135.139 20.05C134.099 21.15 133.079 23.12 132.079 25.96C131.099 28.78 130.279 32.6 129.619 37.42C129.479 38.44 129.269 39.15 128.989 39.55C128.729 39.95 128.209 40.15 127.429 40.15ZM169.621 34.21C169.881 34.21 170.081 34.33 170.221 34.57C170.381 34.81 170.461 35.14 170.461 35.56C170.461 36.28 170.291 36.9 169.951 37.42C169.391 38.28 168.651 38.95 167.731 39.43C166.831 39.91 165.751 40.15 164.491 40.15C162.571 40.15 161.081 39.58 160.021 38.44C158.961 37.28 158.431 35.72 158.431 33.76C158.431 32.38 158.721 31.1 159.301 29.92C159.881 28.72 160.681 27.77 161.701 27.07C162.741 26.37 163.911 26.02 165.211 26.02C166.371 26.02 167.301 26.37 168.001 27.07C168.701 27.75 169.051 28.68 169.051 29.86C169.051 31.24 168.551 32.43 167.551 33.43C166.571 34.41 164.891 35.19 162.511 35.77C162.991 36.69 163.801 37.15 164.941 37.15C165.761 37.15 166.431 36.96 166.951 36.58C167.491 36.2 168.111 35.56 168.811 34.66C169.051 34.36 169.321 34.21 169.621 34.21ZM164.701 28.96C163.961 28.96 163.331 29.39 162.811 30.25C162.311 31.11 162.061 32.15 162.061 33.37V33.43C163.241 33.15 164.171 32.73 164.851 32.17C165.531 31.61 165.871 30.96 165.871 30.22C165.871 29.84 165.761 29.54 165.541 29.32C165.341 29.08 165.061 28.96 164.701 28.96Z" fill="white"/>
</svg>
