<svg id="Layer_1" data-name="Layer 1" xmlns="http://www.w3.org/2000/svg" xmlns:xlink="http://www.w3.org/1999/xlink" viewBox="0 0 380.77 314.86"><defs><linearGradient id="linear-gradient" x1="106.52" y1="231.35" x2="156.84" y2="342.14" gradientUnits="userSpaceOnUse"><stop offset="0.01"/><stop offset="0.13" stop-opacity="0.69"/><stop offset="1" stop-opacity="0"/></linearGradient><linearGradient id="linear-gradient-2" x1="367.83" y1="204.27" x2="286.95" y2="160.5" xlink:href="#linear-gradient"/><linearGradient id="linear-gradient-3" x1="-96.38" y1="343.94" x2="-29.98" y2="259.21" gradientTransform="translate(446.18 -38.46) rotate(17.88)" xlink:href="#linear-gradient"/><linearGradient id="linear-gradient-4" x1="181.11" y1="184.98" x2="177.32" y2="281.03" xlink:href="#linear-gradient"/><linearGradient id="linear-gradient-5" x1="292.44" y1="189.67" x2="288.65" y2="285.66" xlink:href="#linear-gradient"/><linearGradient id="linear-gradient-6" x1="134.53" y1="189.71" x2="217.63" y2="158.94" xlink:href="#linear-gradient"/><linearGradient id="linear-gradient-7" x1="282.97" y1="131.04" x2="198.85" y2="163.11" gradientUnits="userSpaceOnUse"><stop offset="0.01" stop-color="#fff"/><stop offset="0.13" stop-color="#fff" stop-opacity="0.69"/><stop offset="1" stop-color="#fff" stop-opacity="0"/></linearGradient><linearGradient id="linear-gradient-8" x1="234.92" y1="208.54" x2="233.02" y2="111.49" xlink:href="#linear-gradient"/><linearGradient id="linear-gradient-9" x1="128.68" y1="211.77" x2="143.9" y2="197.5" xlink:href="#linear-gradient"/><linearGradient id="linear-gradient-10" x1="120.69" y1="157.51" x2="110.91" y2="172.73" xlink:href="#linear-gradient"/><linearGradient id="linear-gradient-11" x1="62.5" y1="244.73" x2="124.86" y2="225.4" xlink:href="#linear-gradient"/><linearGradient id="linear-gradient-12" x1="220.75" y1="157.63" x2="214.39" y2="162.38" gradientTransform="translate(-129.52 17.65) rotate(-5.51)" xlink:href="#linear-gradient"/><linearGradient id="linear-gradient-13" x1="90.24" y1="223.35" x2="137.72" y2="223.35" xlink:href="#linear-gradient"/><linearGradient id="linear-gradient-14" x1="112.24" y1="297.45" x2="147.77" y2="277.25" xlink:href="#linear-gradient"/></defs><title>12</title><path d="M400.33,204.25c-2.25,26-18,51.21-42.24,64.64-16.53,9.15-35.35,12.83-54.52,15.7l-3.85.56c-5.35.79-10.72,1.53-16.06,2.34-5.85.88-11.67,1.83-17.4,3-28.08,5.69-54.8,16.6-82.95,21.71-2.47.45-4.95.86-7.44,1.21-4.1.58-8.27,1-12.48,1.18-2.71.14-5.44.19-8.16.16-1.68,0-3.36-.08-5-.16-3.24-.16-6.46-.44-9.65-.86-3.45-.44-6.86-1-10.2-1.81A88.57,88.57,0,0,1,115.09,307a71.49,71.49,0,0,1-11.77-6.34,59.61,59.61,0,0,1-12.87-11.54c-6.72-8.12-10.89-17.79-16.72-26.49C57.11,237.85,26.59,220,20.78,191.32c-5.47-26.94,13.66-53.17,36.36-70.69s49.86-30,70.28-49.81C161.68,37.62,194.59-13,252.67,2.93c37.38,10.28,124.42,64.31,136.5,99.78,5.16,15.13-1.28,31.58.61,47.35,1.23,10.22,5.9,19.77,8.52,29.75A71.76,71.76,0,0,1,400.33,204.25Z" transform="translate(-19.83 0.11)" fill="#43ffbb" opacity="0.18" style="isolation:isolate"/><path d="M155.23,314.74c-1.68,0-3.36-.08-5-.16-3.24-.16-6.46-.44-9.65-.86v-.12c.14-6.53-4.68-12.35-4.69-18.88,0,.54,9.31-.91,10.12-1.11,3.39-.83,5.08-1.76,6,2.2C153.41,302.09,153.11,308.62,155.23,314.74Z" transform="translate(-19.83 0.11)" fill="#f6a98e"/><path d="M130.35,311.91A88.57,88.57,0,0,1,115.09,307c-1.35-3.65-3-7.26-3-11.11,0,.54,9.31-.91,10.13-1.12,3.38-.83,5.07-1.76,6,2.2C129.29,301.9,129.35,307,130.35,311.91Z" transform="translate(-19.83 0.11)" fill="#f6a98e"/><path d="M106.51,295.56a10.68,10.68,0,0,1-3.44-3.28,2.84,2.84,0,0,1-.45-1,3.93,3.93,0,0,1,.17-1.44c.93-4.09-.58-8.28-1.16-12.43s-.23-8.34-1-12.44c-.49-2.51-2-7,.92-8.84a5,5,0,0,1,2.55-.54c8-.27,16-2.24,23.92-3.31a70.27,70.27,0,0,1,12.21-.74,31.24,31.24,0,0,1,5.87.67c2.24.54,1.46,1.53,1.66,3.6a15.09,15.09,0,0,0,1,3.58,51.4,51.4,0,0,1,2,8.61l3.23,19.34a4.62,4.62,0,0,1,.09,1.57,4.07,4.07,0,0,1-.51,1.26,13.74,13.74,0,0,1-8.14,6,24.94,24.94,0,0,1-10.29.48,2.18,2.18,0,0,1-1.25-.45c-.91-.84,0-2.47-.59-3.57-.49,1.29.28,3-.6,4a3.18,3.18,0,0,1-1.84.87,51.79,51.79,0,0,1-13.11.68,30.36,30.36,0,0,1-8.1-1.21A14.38,14.38,0,0,1,106.51,295.56Z" transform="translate(-19.83 0.11)" fill="#43ffbb"/><path d="M154,288.87a3.84,3.84,0,0,1-.51,1.26h0a13.78,13.78,0,0,1-8.13,6,24.9,24.9,0,0,1-10.28.48,2.29,2.29,0,0,1-1.26-.45s0,0,0,0a1.35,1.35,0,0,1-.39-.93c-.09-.83.23-1.85-.17-2.61a2.51,2.51,0,0,0-.16.72v0c-.11,1.14.27,2.41-.45,3.29a3.11,3.11,0,0,1-1.83.86,51.84,51.84,0,0,1-13.11.69,30.24,30.24,0,0,1-8.1-1.21,14.24,14.24,0,0,1-3.1-1.42,10.55,10.55,0,0,1-3.43-3.28,2.68,2.68,0,0,1-.45-1,3.73,3.73,0,0,1,.17-1.44c.92-4.09-.59-8.28-1.17-12.43s-.23-8.34-1-12.44c-.49-2.51-2-7,.91-8.84a5,5,0,0,1,2.55-.54c8-.27,16-2.24,23.92-3.31a70.33,70.33,0,0,1,12.22-.74,31.33,31.33,0,0,1,5.87.67c2.23.54,1.46,1.53,1.65,3.6a15.09,15.09,0,0,0,1,3.58,50.43,50.43,0,0,1,2,8.61L154,287.3A4.88,4.88,0,0,1,154,288.87Z" transform="translate(-19.83 0.11)" fill="url(#linear-gradient)"/><path d="M187.61,155.28a13.11,13.11,0,0,1,1.33-2.38,5.44,5.44,0,0,1,3.81-1.47,16,16,0,0,0,4.15-.43,14.06,14.06,0,0,0-2.2,4.22,20.56,20.56,0,0,1-.49,2.06,4.3,4.3,0,0,1-4.89,2.58c-.67-.17-1.49-.46-1.94,0a2.77,2.77,0,0,0-.31.56,2,2,0,0,1-3.21.3C182.11,158.52,186.73,156.84,187.61,155.28Z" transform="translate(-19.83 0.11)" fill="#43ffbb"/><path d="M292.62,263.1,301,249.85A44.49,44.49,0,0,1,292.62,263.1Z" transform="translate(-19.83 0.11)" fill="#43ffbb" opacity="0.18" style="isolation:isolate"/><path d="M400.33,204.25c-2.25,26-18,51.21-42.24,64.64-16.53,9.15-35.35,12.83-54.52,15.7l-3.85.56a53.4,53.4,0,0,1-2.3-4.92,16.26,16.26,0,0,1-1.5-5.86,18.52,18.52,0,0,1,1.78-7q6.66-16.64,13.31-33.29l-10,15.79c3.33-7.46,5.76-15.54,10.16-22.42,9.51-14.9,28.46-24.93,30.1-42.53,1-11-5.43-21.44-5.77-32.49-.33-10.59,5-20.6,5.74-31.17,1.18-16-8-31.38-6.95-47.38.2-3,1-6.35,3.57-7.92,4.64-2.82,10.16,2.35,12.28,7.36a39.08,39.08,0,0,1,3.07,15.57c0,2.9-.38,5.85.25,8.68,1.43,6.39,7.54,10.89,9.24,17.22,1.27,4.77-.15,9.8-1.6,14.52s-3,9.7-1.82,14.51,6,9.11,10.72,7.76a4.3,4.3,0,0,0,2.27-1.41,6.24,6.24,0,0,0,1-3.33q.61-6.34,1.22-12.7c10.46,9,11,25.57,5.72,38.33-3,7.28-7.56,15.94-2.93,22.33,7.41-.61,16-.38,20.74,5.33A13.73,13.73,0,0,1,400.33,204.25Z" transform="translate(-19.83 0.11)" fill="#43ffbb" opacity="0.18" style="isolation:isolate"/><path d="M296.18,210.73s-9.72-25.69,3-45.67,17-27.91,14.74-36.46c-6.81-25.91,8.73-46,8.73-46s.64,17.76,6.35,32.35,5.71,28.37,0,43.68-12,10.78-7,31.44-8.23,44.14-13.32,53-8.88,21.57-8.88,21.57Z" transform="translate(-19.83 0.11)" fill="#43ffbb"/><path d="M296.18,210.73s-9.72-25.69,3-45.67,17-27.91,14.74-36.46c-6.81-25.91,8.73-46,8.73-46s.64,17.76,6.35,32.35,5.71,28.37,0,43.68-12,10.78-7,31.44-8.23,44.14-13.32,53-8.88,21.57-8.88,21.57Z" transform="translate(-19.83 0.11)" fill="url(#linear-gradient-2)"/><path d="M307.45,230.15s-1.07-21.43,13.15-33.25,19.31-16.67,19.69-23.56c1.16-20.9,17.53-32.11,17.53-32.11s-3.78,13.35-3,25.57-2.56,22.45-10.47,32.47-11.55,5.12-12.73,21.7-16.7,30.84-22.62,36.22-11.77,13.9-11.77,13.9Z" transform="translate(-19.83 0.11)" fill="#43ffbb"/><path d="M307.45,230.15s-1.07-21.43,13.15-33.25,19.31-16.67,19.69-23.56c1.16-20.9,17.53-32.11,17.53-32.11s-3.78,13.35-3,25.57-2.56,22.45-10.47,32.47-11.55,5.12-12.73,21.7-16.7,30.84-22.62,36.22-11.77,13.9-11.77,13.9Z" transform="translate(-19.83 0.11)" fill="url(#linear-gradient-3)"/><path d="M183.31,222.78v89.41c-2.47.45-4.95.86-7.44,1.21-4.1.58-8.27,1-12.48,1.18v-91.8Z" transform="translate(-19.83 0.11)" fill="#43ffbb"/><path d="M303.57,222.44v62.15c-6.62,1-13.29,1.9-19.91,2.9V222.44Z" transform="translate(-19.83 0.11)" fill="#43ffbb"/><path d="M183.31,222.78v89.41c-1.35.45-2.71.86-4.07,1.21a41.89,41.89,0,0,1-6.83,1.18v-91.8Z" transform="translate(-19.83 0.11)" fill="url(#linear-gradient-4)"/><path d="M296.18,222.44v62.15c-4.16,1-8.36,1.9-12.52,2.9V222.44Z" transform="translate(-19.83 0.11)" fill="url(#linear-gradient-5)"/><path d="M274,165v.21a52.78,52.78,0,0,1-.66,8.46,39.45,39.45,0,0,1-4.83,13.88c-.12.22-.25.44-.38.65a34.62,34.62,0,0,1-4.94,6.31c-7.76,7.84-19,11.61-31,11.61-10.9,0-20.47-3.07-27.44-9.45a31.27,31.27,0,0,1-4.89-5.64,37.91,37.91,0,0,1-5.42-12.44,55.75,55.75,0,0,1-1.51-13.38c0-.61,0-1.21,0-1.82.05-1.62.15-3.28.31-5a88.16,88.16,0,0,1,1.67-10.6c3.72-17.13,12.36-34.66,23.41-43.57,4.68-3.77,9.78-6,15.13-6C255.8,98.32,273.92,137.15,274,165Z" transform="translate(-19.83 0.11)" fill="#43ffbb"/><path d="M274,165v.21a52.81,52.81,0,0,1-.65,8.46,39.66,39.66,0,0,1-4.84,13.88l-.37.65a34.23,34.23,0,0,1-4.95,6.31c-7.76,7.84-19,11.61-31,11.61-10.89,0-20.47-3.08-27.44-9.45a31.67,31.67,0,0,1-4.89-5.64,37.91,37.91,0,0,1-5.42-12.44,55.75,55.75,0,0,1-1.51-13.38c0-.61,0-1.21,0-1.82.05-1.62.15-3.28.31-5a88.16,88.16,0,0,1,1.67-10.6,98.79,98.79,0,0,1,10.42-27.53c3.71-6.51,8.12-12.12,13-16,4.67-3.77,9.78-6,15.12-6,10.63,0,20.32,8.81,27.55,21.05C269,132.83,274,150.43,274,165Z" transform="translate(-19.83 0.11)" fill="url(#linear-gradient-6)"/><path d="M274,165.25c0,9.29-2.15,16.93-5.86,23-7.37,5.41-16.83,8-26.88,8-22.39,0-39.26-13-39.26-40.91,0-16.6,6.42-37.13,16.34-51.05,4.67-3.77,9.78-6,15.12-6C255.85,98.31,274,137.34,274,165.25Z" transform="translate(-19.83 0.11)" fill="#43ffbb"/><path d="M274,165.25c0,9.29-2.16,16.93-5.87,23-7.37,5.42-16.82,8-26.88,8-22.39,0-39.26-13-39.26-40.91,0-16.24,6.15-36.26,15.71-50.14.2-.31.42-.61.63-.91,4.68-3.77,9.78-6,15.13-6,5.65,0,11,2.48,15.9,6.63h0C263.86,117.28,274,144.38,274,165.25Z" transform="translate(-19.83 0.11)" fill="url(#linear-gradient-7)"/><path d="M261,119.37a6,6,0,0,1-2.23-1.38,2.39,2.39,0,0,0-2.5-.51c-.91.5-.94,1.75-1.22,2.75a4.69,4.69,0,0,1-4.8,3.28c-2.23-.22-3.93-2-5.57-3.53s-3.81-3-6-2.4c-1.83.51-2.93,2.29-4.23,3.67-2.31,2.44-6.11,3.79-9.12,2.31s-4.67-5.25-7.95-5.64-5.92,2.86-9.18,3a6.65,6.65,0,0,1-2.9-.62c3.71-6.51,8.12-12.12,13-16,4.67-3.77,9.78-6,15.12-6C244.1,98.32,253.79,107.13,261,119.37Z" transform="translate(-19.83 0.11)" fill="url(#linear-gradient-8)"/><polygon points="179.34 133.66 187.93 136.61 199.76 131.5 209.71 136.61 219.93 131.5 229.34 137.68 239.03 131.5 248.27 134.59 250.59 141.72 240.37 137.55 226.92 143.6 218.43 137.55 208.77 144.14 198.28 136.61 185.78 145.75 176.98 140.64 179.34 133.66" fill="#43ffbb"/><polygon points="179.34 133.66 187.93 136.61 199.76 131.5 209.71 136.61 219.93 131.5 229.34 137.68 239.03 131.5 248.27 134.59 250.59 141.72 240.37 137.55 226.92 143.6 218.43 137.55 208.77 144.14 198.28 136.61 185.78 145.75 176.98 140.64 179.34 133.66" fill="#fff"/><path d="M274,165v.21a52.78,52.78,0,0,1-.66,8.46,29.76,29.76,0,0,1-5.27-4.63c-1.15-1.28-2.31-2.74-4-3.16-1.87-.48-3.83.52-5.28,1.82s-2.59,2.91-4.15,4.07a9.38,9.38,0,0,1-7.66,1.58c-2.53-.6-4.67-2.22-6.89-3.55s-4.84-2.44-7.38-1.86c-3.7.85-5.69,4.81-8.75,7.05a10.81,10.81,0,0,1-12.91-.43c-2.08-1.75-3.79-4.47-6.51-4.62-2.53-.15-4.52,2-5.95,4.12-1.17,1.7-2.41,3.59-4.17,4.53a55.75,55.75,0,0,1-1.51-13.38c0-.61,0-1.21,0-1.82a.53.53,0,0,1,.17.08,8.78,8.78,0,0,1,10.64-1.9c1.92,1.09,3.35,2.87,5.18,4.11a11,11,0,0,0,9.61,1.25c3.66-1.27,6.34-4.37,8.65-7.48,1.58-2.15,5.1-1.67,7.66-.92a17.66,17.66,0,0,1,6.75,4.19c2.34,2.14,4.8,4.76,8,4.78,3.48,0,6.13-3.14,7.55-6.31.58-1.28,1.12-2.7,2.32-3.44a6.41,6.41,0,0,1,2.64-.68c2.58-.27,5.48-.45,7.46,1.23s2.38,4.94,4.43,6.69Z" transform="translate(-19.83 0.11)" fill="#fff" opacity="0.74"/><path d="M268.52,187.59c-.12.22-.25.44-.38.65a34.62,34.62,0,0,1-4.94,6.31,21,21,0,0,1-6.47-.55c-3.34-.87-6.37-2.79-9.78-3.41-7.41-1.35-14.64,3.67-22.17,3.41-2.74-.09-5.39-.89-8.1-1.29s-5.62-.38-8,1c-1.43.84-2.55,2.13-3.95,3a31.27,31.27,0,0,1-4.89-5.64,20.44,20.44,0,0,0,8.43-2.76c2.89-1.77,5.87-4.17,9.23-3.7,1.75.24,3.28,1.26,4.88,2a18.48,18.48,0,0,0,8.4,1.86,10.78,10.78,0,0,0,4.82-1.06c1.08-.57,2-1.38,3-2,2.19-1.28,4.79-1.59,7.31-1.87a11,11,0,0,1,3.67,0c2,.46,3.56,2,5.34,3C259,188.92,263.83,188.61,268.52,187.59Z" transform="translate(-19.83 0.11)" fill="#fff"/><circle cx="196.03" cy="153.35" r="5.38" fill="#fff"/><circle cx="219.73" cy="151.66" r="5.38" fill="#fff"/><circle cx="239.53" cy="149.21" r="5.38" fill="#fff"/><path d="M199.86,153.24a5.38,5.38,0,0,1-6.6,5.24,88.16,88.16,0,0,1,1.67-10.6A5.38,5.38,0,0,1,199.86,153.24Z" transform="translate(-19.83 0.11)" fill="#fff"/><path d="M199.85,179.79a1.19,1.19,0,0,0-.52.36,1.08,1.08,0,0,0-.15.59l-.08.93a1.67,1.67,0,0,0,0,.59,1.27,1.27,0,0,0,1.34.67,9.56,9.56,0,0,0,2.53-.71,24.54,24.54,0,0,1,7.46-.83c.52,0,1.13-.08,1.39-.53.89-1.6-3.45-2.43-4.4-2.47A17.25,17.25,0,0,0,199.85,179.79Z" transform="translate(-19.83 0.11)" fill="#fff"/><path d="M228.06,177.51a4.37,4.37,0,0,0-2.63,1.72.81.81,0,0,0-.12.6c.13.37.62.43,1,.42l11.38-.38a1.77,1.77,0,0,0,1.86-2.11c-.28-1.12-1.29-1.23-2.28-1.34A22.73,22.73,0,0,0,228.06,177.51Z" transform="translate(-19.83 0.11)" fill="#fff"/><path d="M255.78,175.2a19,19,0,0,0-5.28.44c-.46.13-1,.36-1.09.82a1.23,1.23,0,0,0,.51,1.13,5.22,5.22,0,0,0,3,1.12c1.09.09,2.18,0,3.27.11,2.41.2,4.93,1.22,7.15.27a.86.86,0,0,0,.33-.23c.91-1.24-1.31-3.14-2.36-3.46C259.66,174.88,257.49,175.21,255.78,175.2Z" transform="translate(-19.83 0.11)" fill="#fff"/><rect x="143.56" y="206.26" width="140.19" height="16.62" fill="#43ffbb"/><path d="M249.37,104.94h0c-18.37,4.06-28.94,1.2-31.66.27.2-.31.42-.61.63-.91,4.68-3.77,9.78-6,15.13-6C239.12,98.31,244.49,100.79,249.37,104.94Z" transform="translate(-19.83 0.11)" fill="#43ffbb"/><path d="M147.35,189.55a5,5,0,0,1,1.71,1.07,4.34,4.34,0,0,1,.87,2.13,28.91,28.91,0,0,1-.63,13.83,1.88,1.88,0,0,1-.37.78,1.91,1.91,0,0,1-1.58.35,24.5,24.5,0,0,1-8.89-2.55,26.29,26.29,0,0,1-7.19-5.38c-3.56-3.7-18-19.9-11.62-24.07C125.2,172.11,142.52,187.26,147.35,189.55Z" transform="translate(-19.83 0.11)" fill="#43ffbb"/><path d="M143.34,197.22a13.7,13.7,0,0,1-10.1-4.06c.2,3.56.51,7.38,2.79,10.12,2.7,3.25,7.32,4,11.53,4.43a1.34,1.34,0,0,0,.82-.09,1.17,1.17,0,0,0,.42-.58,7.34,7.34,0,0,0-5.15-10.14" transform="translate(-19.83 0.11)" fill="url(#linear-gradient-9)"/><path d="M119.22,170.41c-.25-2.89-.45-6.46-3.73-7.46a8.85,8.85,0,0,0-3.73-.17c-2.08.28-5.63-6.59-6.74-4.82-.75,1.2.46,10.28.45,11.69a28.74,28.74,0,0,0,1,7.61,6.87,6.87,0,0,0,.88,2.15,6.22,6.22,0,0,0,1.72,1.55,10,10,0,0,0,3.92,1.68c1.42.24,6.06.92,7.23.09,1.88-1.32-.63-4.73-.55-7A44.55,44.55,0,0,0,119.22,170.41Z" transform="translate(-19.83 0.11)" fill="#f6a98e"/><path d="M112.34,173.91a13.11,13.11,0,0,0,4.62,3.2c.79.32,1.84.5,2.35-.18a2.07,2.07,0,0,0,.26-1.35,28,28,0,0,0-.93-5.9l-1.91-1.56a2.73,2.73,0,0,1-.84-1,1.8,1.8,0,0,0-.3-.64,1.15,1.15,0,0,0-.61-.28,12.26,12.26,0,0,1-3.4-.95c-.73-.43-1.29-1-2.07-1.42s-2.85-1.63-3.47-.86.8,3.65,1.24,4.35c.57.89,1.52,1.58,2.15,2.47s1.37,2.17,2.16,3.19C111.83,173.33,112.08,173.63,112.34,173.91Z" transform="translate(-19.83 0.11)" fill="url(#linear-gradient-10)"/><path d="M126.46,169.09a6.82,6.82,0,0,1-7.89,3.18A20.06,20.06,0,0,1,107,165a18.2,18.2,0,0,1-3.69-13.11,23.17,23.17,0,0,1,6.93-13.76,8.51,8.51,0,0,1,6.3-2.07,23,23,0,0,1,6.6,1.61,14.94,14.94,0,0,1,4.71,2.38c3.43,2.9,3.71,8.07,3.13,12.52-.32,2.52.12,5.12-.38,7.53A22,22,0,0,1,126.46,169.09Z" transform="translate(-19.83 0.11)" fill="#f6a98e"/><path d="M132.47,139.93c.21,2.13-.29,4.55-2.06,5.75a16,16,0,0,0-2.66-5.43,3.63,3.63,0,0,0-2.11-1.58,4.43,4.43,0,0,0-2.5.62,20.87,20.87,0,0,1-8.85,1.79c-1.31,0-2.77-.12-3.78.72a4.93,4.93,0,0,0-1.12,1.64l-3.69,7.37a13.32,13.32,0,0,0-1,2.24c-.53,1.94-.19,4.27-1.61,5.69a12.33,12.33,0,0,0-3.76-5.2,18.76,18.76,0,0,1-2.83-2.33c-1.38-1.63-1.68-3.89-1.83-6-.22-3.21-.18-6.64,1.51-9.39s5.58-4.36,8.27-2.58c1.4-3,3.13-6.34,6.3-7.32,4.54-1.4,10.69,2.28,14.76,4S132,135.71,132.47,139.93Z" transform="translate(-19.83 0.11)" fill="#551d11"/><path d="M99.23,153.27a2.69,2.69,0,0,0-2.31.73c-.76.95-.24,2.38.49,3.36a10.34,10.34,0,0,0,7.51,4.11.71.71,0,0,0,.6-.16.74.74,0,0,0,.08-.55C105.06,156.79,103.82,153.59,99.23,153.27Z" transform="translate(-19.83 0.11)" fill="#f6a98e"/><path d="M146.11,255.88A15.89,15.89,0,0,1,141,258l-.72.2c-3.67,1-7.36,2.07-11.09,2.84a58.75,58.75,0,0,1-7.92,1.12c-6.48.43-13.22-.57-18.73-4a4.87,4.87,0,0,1-1.5-1.28,5.64,5.64,0,0,1-.64-1.54c-.62-2.08-1.36-4.19-2-6.32a.43.43,0,0,0,0-.05,33.66,33.66,0,0,1-1.07-5c-.56-2.61-1.13-5.24-1.64-7.86-.77-3.92-1.51-7.83-2.15-11.77-.13-.79-.25-1.57-.36-2.36s-.23-1.58-.34-2.37-.22-1.69-.31-2.54c-.35-3.11-.08-6.7-.82-9.71h0c-.56-2.26-2.08-4.19-2.48-6.59-.48-2.87.23-5.8.93-8.62.91-3.66,1.87-7.4,4-10.49a20.45,20.45,0,0,1,5.16-5,26.9,26.9,0,0,1,3-1.73,5,5,0,0,0,1-.55c.42-.34.36-.94,1.16-.91a3,3,0,0,1,1.71.91l4.49,3.82a14.64,14.64,0,0,0,3.37,2.37,9.41,9.41,0,0,0,4.06,1,2.11,2.11,0,0,0,2-1.5,2.63,2.63,0,0,0,0-.84,21.53,21.53,0,0,0-.57-3.19c-.06-.2-.1-.47.08-.59a.51.51,0,0,1,.3-.07,6.73,6.73,0,0,1,2.58.75c.89.38,1.83.6,2.73,1a12.94,12.94,0,0,1,6.23,5.58,23.47,23.47,0,0,1,2.65,6.92,28.43,28.43,0,0,1,.46,2.84c1,9.39,4.21,18.32,6.65,27.39A86.73,86.73,0,0,1,144,234.07c.39,4-1,9,1.66,12.3,1.2,1.47,2.67,2.93,2.86,4.83A5.37,5.37,0,0,1,146.11,255.88Z" transform="translate(-19.83 0.11)" fill="#43ffbb"/><path d="M97.35,244a9.28,9.28,0,0,1-.7-2,38.41,38.41,0,0,1-.94-5.84C96.23,238.73,96.79,241.36,97.35,244Z" transform="translate(-19.83 0.11)" fill="#43ffbb"/><path d="M121.33,161.21a.88.88,0,0,0-.42.11.73.73,0,0,0-.23.42,4.14,4.14,0,0,0,.65,3,3,3,0,0,0,1.21,1.24,2.34,2.34,0,0,0,2.38-.38c.86-.67,2.54-3.28,1.64-4.31S122.45,161.15,121.33,161.21Z" transform="translate(-19.83 0.11)" fill="#fff"/><path d="M129.2,261a58.75,58.75,0,0,1-7.92,1.12c-6.48.43-13.22-.57-18.73-4a4.87,4.87,0,0,1-1.5-1.28,5.64,5.64,0,0,1-.64-1.54c-.62-2.08-1.36-4.19-2-6.32a.43.43,0,0,0,0-.05c-.05-.3-.11-.6-.18-.89-.3-1.36-.59-2.72-.89-4.08-.56-2.61-1.13-5.24-1.64-7.86-.8-3.91-1.53-7.83-2.15-11.77-.13-.79-.25-1.57-.36-2.36s-.23-1.58-.34-2.37-.22-1.69-.31-2.54c-.39-3.22-.67-6.46-.82-9.71h0c0-.4,0-.8-.06-1.2-.06-1.53-.09-3.08-.06-4.63a4.37,4.37,0,0,1,.47-.34c3.74-2.44,7.72-1.7,10.77-5.92a114.79,114.79,0,0,0,8.88,49.9,32.26,32.26,0,0,0,7.37,10.36,13.91,13.91,0,0,0,7.31,3.89l.29,0C127.81,259.64,129.08,260,129.2,261Z" transform="translate(-19.83 0.11)" fill="url(#linear-gradient-11)"/><path d="M86.07,236.08c.81,3.39,2.25,6.86,5.1,8.86a9.17,9.17,0,0,0,9.91.25c3.31-2.08,4.87-6,6.18-9.69s2.73-7.62,5.91-9.89c1.15-.82,2.47-1.37,3.65-2.15a5.35,5.35,0,0,0,2.51-3.27,2,2,0,0,0-.28-1.55,2.25,2.25,0,0,0-.93-.64c-3.35-1.44-7.2-.29-10.66.86l-7.67,2.58c.38-1.61.69-3.51-.4-4.75a4.5,4.5,0,0,0-3.83-1.06c-3.11.28-8.31,1.71-9.75,4.88C83.83,224.88,85,231.63,86.07,236.08Z" transform="translate(-19.83 0.11)" fill="#f6a98e"/><path d="M101.7,156.3a1.94,1.94,0,0,0-1.09-1.22,3.7,3.7,0,0,0-1.65-.26,1.54,1.54,0,0,0-.64.11,1.28,1.28,0,0,0-.66,1.11,2.59,2.59,0,0,0,.36,1.29,6.56,6.56,0,0,0,2.53,2.69,3.49,3.49,0,0,0,1.48.51c.89.05,2.34-.92,1.41-1.8-.34-.32-.9-.37-1.25-.72S101.86,156.92,101.7,156.3Z" transform="translate(-19.83 0.11)" fill="url(#linear-gradient-12)"/><path d="M81.56,218.35a4,4,0,0,0,.59,2.44,3.76,3.76,0,0,0,3,1.09c5.44.16,10.66-2,15.69-4a4,4,0,0,0,1.56-1,3.89,3.89,0,0,0,.69-1.86l2.74-15a30.31,30.31,0,0,0,.73-7c-.24-4.41-2.85-9.64-6.84-11.85-5.07-2.81-7.65,2.9-10,6.78A58.39,58.39,0,0,0,81.56,218.35Z" transform="translate(-19.83 0.11)" fill="#43ffbb"/><path d="M99.24,221.64c-1.55,1.15-3.06,2.35-4.55,3.58a13.18,13.18,0,0,0-4,4.52c-.83,1.84-.67,4.29.89,5.57a5.79,5.79,0,0,0,4.36.88c6.4-.76,11.57-5.63,17.79-7.33,3.45-1,7.08-.88,10.63-1.32a37.43,37.43,0,0,0,6.19-1.3,11.66,11.66,0,0,0,5.86-3.35c2.28-2.8,1.33-7.68-1.46-9.78-6.71-5.06-16.75-1.94-23.66,1.2A66.61,66.61,0,0,0,99.24,221.64Z" transform="translate(-19.83 0.11)" fill="#fff"/><path d="M99.24,221.64c-1.55,1.15-3.06,2.35-4.55,3.58a13.18,13.18,0,0,0-4,4.52c-.83,1.84-.67,4.29.89,5.57a5.79,5.79,0,0,0,4.36.88c6.4-.76,11.57-5.63,17.79-7.33,3.45-1,7.08-.88,10.63-1.32a37.43,37.43,0,0,0,6.19-1.3,11.66,11.66,0,0,0,5.86-3.35c2.28-2.8,1.33-7.68-1.46-9.78-6.71-5.06-16.75-1.94-23.66,1.2A66.61,66.61,0,0,0,99.24,221.64Z" transform="translate(-19.83 0.11)" fill="url(#linear-gradient-13)"/><path d="M98.72,220.17c-1.56,1.16-3.07,2.36-4.56,3.59a13.24,13.24,0,0,0-4,4.51c-.83,1.85-.67,4.29.9,5.57a5.72,5.72,0,0,0,4.35.89c6.4-.77,11.57-5.63,17.79-7.34,3.45-.94,7.08-.88,10.63-1.31a38.26,38.26,0,0,0,6.19-1.3,11.63,11.63,0,0,0,5.86-3.36c2.28-2.8,1.33-7.67-1.46-9.77-6.71-5.07-16.75-1.94-23.65,1.2A66.22,66.22,0,0,0,98.72,220.17Z" transform="translate(-19.83 0.11)" fill="#fff"/><path d="M97.5,222.16a3.29,3.29,0,0,0-1,.2,1.94,1.94,0,0,0-1.1,1.67,2.75,2.75,0,0,0,.72,1.92.75.75,0,0,1,.2.33c.08.45-.69.55-.86,1a.91.91,0,0,0,0,.4,3,3,0,0,0,.75,1.59,2.67,2.67,0,0,0,1.81.87,2.25,2.25,0,0,0,1.82-.79,4.26,4.26,0,0,1,.53-.66,5.65,5.65,0,0,1,.58-.36,1.49,1.49,0,0,0,.53-1.71c-.13-.32-.37-.62-.31-1a.9.9,0,0,1,.72-.62,4.56,4.56,0,0,0,1-.26,1.19,1.19,0,0,0,.48-1.6,2.28,2.28,0,0,0-1.94-1.39A23.45,23.45,0,0,0,97.5,222.16Z" transform="translate(-19.83 0.11)" fill="#43ffbb"/><path d="M108.75,215.64c-.32.05-.68.17-.78.47a.67.67,0,0,0,.52.77,2.57,2.57,0,0,0,1,0,1.34,1.34,0,0,1,1,.17c.47.38.45,1.28,1,1.43.42.1.79-.3,1.18-.5a2.83,2.83,0,0,1,1.66-.11,2.39,2.39,0,0,0,1.65-.22c.46-.32.59-1.14.09-1.41a1.19,1.19,0,0,0-.56-.1,13.33,13.33,0,0,0-1.79.1l.1-1.2a.32.32,0,0,0,0-.22.32.32,0,0,0-.26-.1c-.42,0-.83-.05-1.25-.05a.59.59,0,0,0-.23,0c-.39.19,0,1-.39,1.15s-.75-.35-1.07-.4A6.52,6.52,0,0,0,108.75,215.64Z" transform="translate(-19.83 0.11)" fill="#43ffbb"/><path d="M110.92,220.06c-.24,0-.37.3-.39.54a2.77,2.77,0,0,1,0,.71c-.24.72-1.34.62-1.85,1.18s0,1.92-.58,2.63c-.17.2-.44.4-.35.64s.21.22.36.28c.64.24,1.46.44,1.92-.07s.29-1,.56-1.38c.44-.68,1.43-.64,2.24-.62a10.72,10.72,0,0,0,2.53-.19,2.16,2.16,0,0,0,1.08-.44.87.87,0,0,0,.21-1.07c-.31-.44-1-.33-1.51-.31a.36.36,0,0,1-.25-.06c-.56-.47-.07-1.39-1.2-1.67-.32-.08-.72.11-1.05.11A13.68,13.68,0,0,0,110.92,220.06Z" transform="translate(-19.83 0.11)" fill="#43ffbb"/><path d="M123.71,211.92c0,.6.72.93,1.31,1a4,4,0,0,1,1.76.27c.62.39.77,1.21,1,1.89a.61.61,0,0,0,.13.22.56.56,0,0,0,.31.12c.66.07,1.41-.22,2,.14a6.2,6.2,0,0,1,.46.42,1.62,1.62,0,0,0,2.49-.5.78.78,0,0,0,0-.74.94.94,0,0,0-.35-.27l-1.42-.81a1.92,1.92,0,0,1-.82-.69,3.72,3.72,0,0,1-.22-.64c-.49-1.41-2.1-1.64-3.37-1.4C126.3,211,123.68,211.31,123.71,211.92Z" transform="translate(-19.83 0.11)" fill="#43ffbb"/><path d="M148.41,191a54.64,54.64,0,0,0,6.94,1.39" transform="translate(-19.83 0.11)" fill="none"/><path d="M164.79,200.26c2.92-2.71,11.8-25,13.07-25.85.61-.39,4.15-1.35,4.63-1.91a2.88,2.88,0,0,0,.46-2,17.88,17.88,0,0,0-.81-4.47,1.79,1.79,0,0,1-.08-1.32,1.61,1.61,0,0,1,1.27-.67c2.08-.32,3.54-.92,3-3.26a6.14,6.14,0,0,0-3.25-4.42c-2.23-1-4.86-.18-7,1a7.7,7.7,0,0,0-3.61,3.65c-.82,2.18.06,4.68-.56,6.93a10.57,10.57,0,0,1-1.77,3.26l-8.88,12.56c-2.09,3-4.37,6.09-7.74,7.46-2.61,1.07-5.72,1-8,2.68a6.27,6.27,0,0,0-2.41,5.81C145,211.9,160,204.69,164.79,200.26Z" transform="translate(-19.83 0.11)" fill="#f6a98e"/><path d="M177.45,161.46l-25.57,16,.51,1.2,26.23-13.89S180.41,161.46,177.45,161.46Z" transform="translate(-19.83 0.11)" fill="#43ffbb"/><path d="M153.71,288.4a9.85,9.85,0,0,1-.19,1.73h0a13.78,13.78,0,0,1-8.13,6,24.9,24.9,0,0,1-10.28.48,2.29,2.29,0,0,1-1.26-.45s0,0,0,0a4.25,4.25,0,0,1-.39-.93,7.15,7.15,0,0,1-.33-1.87v0a8.76,8.76,0,0,1,0-1.15,21.7,21.7,0,0,0-.9-5.64c-.34-1.68.65-5.43.05-6.62l1.31,2.62c3-4.58,2.45-10.61,1.34-16a8.43,8.43,0,0,1,4.12,6.33,25,25,0,0,1-.41,7.8l2.64-.05c.42,2.88,1.88,5.49,3.32,8a2.66,2.66,0,0,0,4,1.63Z" transform="translate(-19.83 0.11)" fill="url(#linear-gradient-14)"/></svg>